<?xml version="1.0" standalone="no"?><svg xmlns="http://www.w3.org/2000/svg" viewBox="0 0 1440 320"><path fill="#462228" fill-opacity="1" d="M0,160L15,144C30,128,60,96,90,106.7C120,117,150,171,180,181.3C210,192,240,160,270,165.3C300,171,330,213,360,224C390,235,420,213,450,192C480,171,510,149,540,154.7C570,160,600,192,630,213.3C660,235,690,245,720,234.7C750,224,780,192,810,181.3C840,171,870,181,900,202.7C930,224,960,256,990,245.3C1020,235,1050,181,1080,144C1110,107,1140,85,1170,101.3C1200,117,1230,171,1260,176C1290,181,1320,139,1350,149.3C1380,160,1410,224,1425,256L1440,288L1440,0L1425,0C1410,0,1380,0,1350,0C1320,0,1290,0,1260,0C1230,0,1200,0,1170,0C1140,0,1110,0,1080,0C1050,0,1020,0,990,0C960,0,930,0,900,0C870,0,840,0,810,0C780,0,750,0,720,0C690,0,660,0,630,0C600,0,570,0,540,0C510,0,480,0,450,0C420,0,390,0,360,0C330,0,300,0,270,0C240,0,210,0,180,0C150,0,120,0,90,0C60,0,30,0,15,0L0,0Z"></path></svg>